<svg width="128" height="128" viewBox="0 0 128 128" fill="none" xmlns="http://www.w3.org/2000/svg">
<g clip-path="url(#clip0_649_5355)">
<ellipse cx="62.7556" cy="67.1051" rx="62.7556" ry="60.8949" fill="#3F0000"/>
<ellipse cx="65.2444" cy="60.8949" rx="62.7556" ry="60.8949" fill="#713816"/>
<path d="M75.9052 7.15281C65.2236 5.19534 54.7152 6.36521 45.2762 9.90449C39.7623 16.1427 35.7728 23.7947 34.0888 32.4484C31.4404 46.0618 34.9376 59.4115 42.6687 69.8283C48.5527 73.2819 55.1328 75.8326 62.2901 77.1442C74.9138 79.4575 87.3371 77.6747 98.1817 72.8305C95.9102 79.8892 91.3877 85.8012 85.5512 89.9435C98.9898 89.3405 111.417 83.4779 120.231 74.0893C120.268 74.0267 120.302 73.9674 120.353 73.9179C120.577 73.0348 120.784 72.1417 120.957 71.2355C126.753 41.4647 106.582 12.7748 75.9052 7.15281Z" fill="#FDD26C"/>
<path d="M99.4176 24.9546C84.974 11.4005 66.1641 7.5416 57.411 16.3305C48.658 25.1226 53.2722 43.2343 67.7191 56.785C82.1661 70.339 100.973 74.198 109.729 65.4058C118.482 56.6136 113.868 38.502 99.4244 24.948L99.4176 24.9546Z" fill="#FFFADA"/>
<path d="M120.258 74.0662C111.444 83.4713 99.0034 89.3437 85.5512 89.9468C78.0816 95.2491 68.4627 97.6581 58.6503 95.8588C41.1679 92.6556 29.2674 77.2462 30.4898 60.4297C34.0718 64.0448 38.1733 67.1952 42.6687 69.8316C34.9376 59.4114 31.4404 46.0617 34.0888 32.4516C35.7796 23.7682 39.7861 16.0932 45.3272 9.8418C33.1822 14.3466 22.8232 22.8191 16.2804 33.9544C16.2295 34.0433 16.1752 34.1323 16.1243 34.2213C15.5946 35.1341 15.0921 36.0667 14.6134 37.0158C14.5692 37.1015 14.5251 37.1872 14.4809 37.2728C13.9683 38.3043 13.4895 39.3523 13.0413 40.4233C13.0278 40.4595 13.0142 40.4958 13.0006 40.5287C12.6033 41.4877 12.2367 42.4664 11.8937 43.455C11.7919 43.745 11.7002 44.035 11.6017 44.325C11.3437 45.106 11.106 45.8969 10.8819 46.6977C10.7971 47.0042 10.7088 47.3074 10.6273 47.6172C10.3489 48.6915 10.0908 49.7757 9.87693 50.8796C8.06724 60.1826 8.79383 69.3834 11.5814 77.8032C12.4166 80.3307 13.442 82.7858 14.6371 85.1552C15.8323 87.5246 17.2006 89.8051 18.7319 91.98C19.2411 92.705 19.7674 93.4168 20.3141 94.1188C21.4039 95.5193 22.5617 96.8704 23.7874 98.1688C24.3986 98.818 25.0301 99.4508 25.6718 100.07C26.962 101.309 28.3134 102.492 29.7258 103.61C31.1383 104.727 32.6118 105.781 34.1397 106.77C34.9036 107.264 35.6812 107.739 36.4757 108.197C37.664 108.886 38.8931 109.518 40.1392 110.121C44.7126 112.339 49.663 114 54.9359 114.966C55.8798 115.137 56.8203 115.285 57.7608 115.41C58.0969 115.457 58.433 115.483 58.7725 115.523C59.3735 115.592 59.9745 115.667 60.5721 115.717C60.9931 115.753 61.4073 115.77 61.8283 115.796C62.341 115.829 62.8537 115.869 63.363 115.885C63.8349 115.901 64.3035 115.901 64.772 115.905C65.2236 115.911 65.6752 115.925 66.1268 115.918C66.6428 115.911 67.1555 115.888 67.6682 115.869C68.0655 115.852 68.4661 115.845 68.8634 115.822C69.4202 115.789 69.9736 115.74 70.5271 115.691C70.87 115.661 71.2163 115.638 71.5626 115.598C72.1636 115.536 72.7612 115.453 73.3553 115.371C73.6439 115.331 73.9325 115.298 74.2211 115.252C74.8662 115.153 75.508 115.038 76.1497 114.916C76.3771 114.873 76.6046 114.834 76.8321 114.788C77.5281 114.649 78.2174 114.491 78.9066 114.326C79.0696 114.287 79.2326 114.254 79.3922 114.211C80.1391 114.023 80.8827 113.822 81.6229 113.608C81.7145 113.582 81.8062 113.555 81.8979 113.529C82.6992 113.292 83.4937 113.034 84.2814 112.764C84.3018 112.758 84.3221 112.751 84.3425 112.744C101.73 106.711 115.62 92.5304 120.258 74.0629V74.0662Z" fill="#E59B41"/>
<path d="M58.6537 95.8587C68.4661 97.658 78.0849 95.2491 85.5546 89.9467C91.3911 85.8044 95.9136 79.8924 98.1851 72.8336C87.3405 77.6779 74.9171 79.4607 62.2934 77.1473C55.1361 75.8358 48.556 73.2884 42.672 69.8315C38.1766 67.1952 34.0785 64.0448 30.4931 60.4297C29.2708 77.2429 41.1713 92.6556 58.6537 95.8587Z" fill="#372215"/>
<path d="M55.5216 39.6092C56.4077 35.0615 53.3248 30.6786 48.6393 29.8185C43.9538 28.9584 39.4381 31.9507 38.5519 36.4983C37.6657 41.046 40.7486 45.4289 45.4341 46.289C50.1196 47.1491 54.6354 44.1569 55.5216 39.6092Z" fill="#372215"/>
<path d="M83.7074 44.7786C82.8212 49.3263 85.9042 53.7092 90.5897 54.5693C95.2752 55.4294 99.7909 52.4372 100.677 47.8895C101.563 43.3418 98.4803 38.9589 93.7948 38.0988C89.1093 37.2387 84.5936 40.2309 83.7074 44.7786Z" fill="#372215"/>
</g>
<defs>
<clipPath id="clip0_649_5355">
<rect width="128" height="128" fill="white"/>
</clipPath>
</defs>
</svg>
