<svg width="27" height="31" viewBox="0 0 27 31" fill="none" xmlns="http://www.w3.org/2000/svg">
<path class="stroke" d="M20.1684 28.9877L20.1677 28.9872L3.24623 18.6642C3.24602 18.664 3.2458 18.6639 3.24559 18.6638C0.923429 17.2493 0.912617 13.7547 3.24628 12.3362C3.24676 12.3359 3.24723 12.3356 3.24771 12.3353L20.1677 2.01317L20.1684 2.01269C21.6239 1.12599 23.2334 1.47293 24.2686 2.39986C25.2926 3.31685 25.8209 4.84107 25.293 6.39634C25.293 6.39641 25.293 6.39648 25.2929 6.39655C25.2929 6.39675 25.2928 6.39695 25.2927 6.39716L22.2066 15.5003L25.2924 24.6024C25.2925 24.6027 25.2926 24.603 25.2927 24.6033C25.8215 26.158 25.2918 27.682 24.2691 28.5986C23.2349 29.5255 21.6252 29.8752 20.1684 28.9877Z" stroke="#1B354D" stroke-width="3"/>
<path d="M4.02627 17.3829L20.9488 27.7067C22.5902 28.7066 24.5173 26.9802 23.8724 25.0857L20.6228 15.5003L23.8724 5.91474C24.5173 4.01629 22.5902 2.29376 20.9488 3.29369L4.02627 13.6174C2.65613 14.4495 2.65969 16.5509 4.02627 17.3829Z" fill="currentColor"/>
</svg>
