<svg width="40" height="40" viewBox="0 0 40 40" fill="none" xmlns="http://www.w3.org/2000/svg">
<path d="M34.0307 26.758H30.6966V23.4238C30.6965 22.9015 30.4891 22.4007 30.1197 22.0314C29.7504 21.6621 29.2495 21.4546 28.7273 21.4546C28.205 21.4546 27.7041 21.6621 27.3348 22.0314C26.9655 22.4007 26.758 22.9016 26.758 23.4238V26.758H23.4238C22.9015 26.758 22.4006 26.9655 22.0313 27.3348C21.662 27.7041 21.4546 28.205 21.4546 28.7273C21.4546 29.2496 21.662 29.7504 22.0313 30.1198C22.4006 30.4891 22.9015 30.6966 23.4238 30.6966H26.758V34.0307C26.758 34.2893 26.8089 34.5454 26.9079 34.7843C27.0069 35.0233 27.1519 35.2404 27.3348 35.4232C27.5176 35.6061 27.7347 35.7512 27.9736 35.8501C28.2126 35.9491 28.4686 36 28.7273 36C29.2495 36 29.7504 35.7925 30.1198 35.4232C30.4891 35.0539 30.6966 34.553 30.6966 34.0307V30.6966H34.0307C34.2893 30.6966 34.5454 30.6457 34.7843 30.5467C35.0233 30.4477 35.2404 30.3027 35.4232 30.1198C35.6061 29.9369 35.7512 29.7198 35.8501 29.4809C35.9491 29.242 36 28.9859 36 28.7273C36 28.4687 35.9491 28.2126 35.8501 27.9737C35.7511 27.7347 35.6061 27.5176 35.4232 27.3348C35.2403 27.1519 35.0232 27.0069 34.7843 26.9079C34.5454 26.809 34.2893 26.758 34.0307 26.758Z" fill="currentColor"/>
<path d="M15.0844 4H7.46103C5.54956 4 4 5.54956 4 7.46103V15.0844C4 16.9959 5.54956 18.5454 7.46103 18.5454H15.0844C16.9959 18.5454 18.5454 16.9959 18.5454 15.0844V7.46103C18.5454 5.54956 16.9959 4 15.0844 4Z" fill="currentColor"/>
<path d="M15.0844 21.4546H7.46103C5.54956 21.4546 4 23.0041 4 24.9156V32.539C4 34.4505 5.54956 36 7.46103 36H15.0844C16.9959 36 18.5454 34.4505 18.5454 32.539V24.9156C18.5454 23.0041 16.9959 21.4546 15.0844 21.4546Z" fill="currentColor"/>
<path d="M32.539 4H24.9156C23.0041 4 21.4546 5.54956 21.4546 7.46103V15.0844C21.4546 16.9959 23.0041 18.5454 24.9156 18.5454H32.539C34.4504 18.5454 36 16.9959 36 15.0844V7.46103C36 5.54956 34.4504 4 32.539 4Z" fill="currentColor"/>
</svg>
