<svg width="32" height="36" viewBox="0 0 32 36" fill="none" xmlns="http://www.w3.org/2000/svg">
<path d="M13.7582 3.51611C13.7583 3.51589 13.7584 3.51567 13.7585 3.51545C14.2389 2.54019 15.2144 2.1665 16.0007 2.1665C16.7868 2.1665 17.762 2.54001 18.2425 3.51472L13.7582 3.51611ZM13.7582 3.51611L12.8494 5.35781L10.8143 5.65267L10.8142 5.65266L10.8098 5.65332C10.3489 5.72151 9.91623 5.91707 9.56051 6.21795C9.20479 6.51884 8.94018 6.91309 8.79649 7.35627C8.6528 7.79947 8.63574 8.27398 8.74724 8.72634C8.85874 9.1787 9.09437 9.59093 9.42756 9.91658L9.42914 9.91812L10.9014 11.3528L10.5537 13.3777C10.5537 13.3778 10.5537 13.3779 10.5536 13.3779C10.4747 13.8376 10.5259 14.3103 10.7015 14.7424C10.8771 15.1746 11.1701 15.549 11.5474 15.8233C11.671 15.9132 11.802 15.9911 11.9386 16.0564C11.0066 16.6528 10.3488 17.6411 10.1991 18.7878H9.66667H5.33333C3.21824 18.7878 1.5 20.5061 1.5 22.6212V29.9545C1.5 32.0696 3.21824 33.7878 5.33333 33.7878H9.66667H11.6667H20.3333H22.3333H26.6667C28.7818 33.7878 30.5 32.0696 30.5 29.9545V25.9545C30.5 23.8394 28.7818 22.1212 26.6667 22.1212H22.3333H21.8333V19.2878C21.8333 17.9319 21.1272 16.7391 20.063 16.0575C20.2005 15.9915 20.3323 15.9128 20.4565 15.822C20.8328 15.5477 21.1251 15.1737 21.3002 14.7422C21.4757 14.3101 21.5267 13.8375 21.4477 13.3779C21.4476 13.3776 21.4476 13.3773 21.4475 13.377L21.0999 11.3528L22.5719 9.91837C22.572 9.91829 22.5721 9.9182 22.5722 9.91812C22.9063 9.59257 23.1427 9.18003 23.2546 8.72714C23.3665 8.27415 23.3494 7.79888 23.2053 7.35511C23.0613 6.91185 22.7964 6.51765 22.4403 6.21693C22.0843 5.91621 21.6513 5.72094 21.1902 5.65313L21.1871 5.65267L19.152 5.35781L18.2432 3.51611H13.7582Z" fill="#1B354D" stroke="#1B354D" stroke-width="3"/>
<path d="M9.66667 20.2878H5.33333C4.04667 20.2878 3 21.3345 3 22.6212V29.9545C3 31.2412 4.04667 32.2878 5.33333 32.2878H9.66667V20.2878ZM18 16.9545H14C12.7133 16.9545 11.6667 18.0012 11.6667 19.2878V32.2878H20.3333V19.2878C20.3333 18.0012 19.2867 16.9545 18 16.9545ZM26.6667 23.6212H22.3333V32.2878H26.6667C27.9533 32.2878 29 31.2412 29 29.9545V25.9545C29 24.6678 27.9533 23.6212 26.6667 23.6212ZM21.7787 7.8185C21.721 7.64106 21.615 7.48325 21.4724 7.36287C21.3299 7.24249 21.1566 7.16431 20.972 7.13717L18.156 6.72917L16.8973 4.1785C16.5613 3.49584 15.44 3.49584 15.104 4.1785L13.8453 6.72917L11.0293 7.13717C10.8448 7.16447 10.6716 7.24275 10.5292 7.3632C10.3868 7.48365 10.2809 7.64148 10.2234 7.8189C10.1658 7.99631 10.159 8.18627 10.2037 8.36736C10.2483 8.54845 10.3426 8.71347 10.476 8.84384L12.5133 10.8292L12.032 13.6318C12.0004 13.8157 12.0209 14.0048 12.0911 14.1777C12.1614 14.3506 12.2786 14.5004 12.4295 14.6101C12.5804 14.7198 12.7591 14.7851 12.9452 14.7986C13.1313 14.8121 13.3175 14.7733 13.4827 14.6865L16.0013 13.3625L18.5187 14.6865C18.6836 14.7742 18.87 14.8135 19.0563 14.8001C19.2426 14.7866 19.4213 14.7209 19.572 14.6105C19.723 14.5007 19.8402 14.3509 19.9104 14.1779C19.9806 14.005 20.001 13.8158 19.9693 13.6318L19.488 10.8292L21.5253 8.84384C21.659 8.7136 21.7536 8.54855 21.7984 8.36734C21.8432 8.18614 21.8363 7.99602 21.7787 7.8185Z" fill="#FEC14E"/>
</svg>
