<svg width="40" height="40" viewBox="0 0 40 40" fill="none" xmlns="http://www.w3.org/2000/svg">
<path fill-rule="evenodd" clip-rule="evenodd" d="M30.0268 11.0264C30.0268 5.5 25.5336 1 20 1C14.4736 1 9.9736 5.5 9.9736 11.0268V15.7468C7.66 15.94 5.84 17.8928 5.84 20.2528V25.88C5.84 33.1132 11.72 39 18.9532 39H21.0468C28.28 39 34.16 33.1132 34.16 25.88V20.2532C34.16 17.8932 31.8404 15.94 29.5268 15.7464L14.3136 15.7268V11.0264C14.6252 3.4916 25.3752 3.4936 25.6868 11.0264V11.6049H30.0268V11.0264ZM20.0004 22.6536C17.2152 22.6288 16.0736 26.3604 18.4136 27.8868C18.5936 28.0068 18.7068 28.22 18.7068 28.44V30.7804C18.752 32.4872 21.2504 32.4836 21.2936 30.7804V28.4404C21.2936 28.2204 21.4068 28.0068 21.5868 27.8868C23.9284 26.3584 22.7852 22.63 20.0004 22.6536Z" fill="currentColor"/>
</svg>
