<svg width="32" height="32" viewBox="0 0 32 32" fill="none" xmlns="http://www.w3.org/2000/svg">
<path d="M16 1C7.70951 1 1 7.70875 1 16C1 24.2904 7.70875 31 16 31C24.2905 31 31 24.2913 31 16C31 7.70963 24.2913 1 16 1ZM17.5404 21.9544C17.5404 22.4283 16.8493 22.9021 16.0003 22.9021C15.1118 22.9021 14.48 22.4283 14.48 21.9544V14.4317C14.48 13.8788 15.1118 13.5036 16.0003 13.5036C16.8493 13.5036 17.5404 13.8788 17.5404 14.4317V21.9544ZM16.0004 11.6873C15.0921 11.6873 14.3813 11.016 14.3813 10.2656C14.3813 9.51531 15.0921 8.86375 16.0004 8.86375C16.8889 8.86375 17.5997 9.51531 17.5997 10.2656C17.5997 11.016 16.8888 11.6873 16.0004 11.6873Z" fill="#13283A"/>
</svg>
