<svg width="40" height="40" viewBox="0 0 40 40" fill="none" xmlns="http://www.w3.org/2000/svg">
<circle cx="20" cy="20" r="20" fill="#1B354D"/>
<path fill-rule="evenodd" clip-rule="evenodd" d="M8.58113 19.6099C14.7551 16.7874 18.8721 14.9267 20.932 14.0277C26.8136 11.4608 28.0357 11.0149 28.8323 11.0002C29.0075 10.9969 29.3992 11.0425 29.6529 11.2585C29.8672 11.4409 29.9262 11.6874 29.9544 11.8603C29.9826 12.0333 30.0177 12.4273 29.9898 12.7351C29.6711 16.249 28.2919 24.7762 27.5903 28.7118C27.2935 30.3771 26.7089 30.9354 26.143 30.9901C24.9131 31.1088 23.9792 30.1372 22.788 29.3179C20.924 28.0358 19.8709 27.2377 18.0616 25.9867C15.9706 24.5408 17.3261 23.7462 18.5178 22.4475C18.8296 22.1076 24.2485 16.9358 24.3534 16.4667C24.3665 16.408 24.3787 16.1893 24.2549 16.0738C24.131 15.9583 23.9483 15.9978 23.8164 16.0292C23.6294 16.0737 20.6517 18.1389 14.8831 22.2247C14.0379 22.8337 13.2723 23.1304 12.5864 23.1149C11.8302 23.0977 10.3756 22.6663 9.29422 22.2974C7.96791 21.8451 6.91378 21.6059 7.00557 20.8376C7.05338 20.4374 7.57857 20.0282 8.58113 19.6099Z" fill="#FEC14E"/>
</svg>
