<svg width="40" height="40" viewBox="0 0 40 40" fill="none" xmlns="http://www.w3.org/2000/svg">
<path fill-rule="evenodd" clip-rule="evenodd" d="M20.0002 3.33337C10.8018 3.33337 3.3335 10.8017 3.3335 20C3.3335 29.1984 10.8018 36.6667 20.0002 36.6667C29.1985 36.6667 36.6668 29.1984 36.6668 20C36.6668 10.8017 29.1985 3.33337 20.0002 3.33337ZM17.6418 20L12.9285 15.285C12.6249 14.9707 12.4569 14.5497 12.4607 14.1127C12.4645 13.6757 12.6398 13.2577 12.9488 12.9487C13.2578 12.6397 13.6758 12.4644 14.1128 12.4606C14.5498 12.4568 14.9708 12.6248 15.2852 12.9284L20.0002 17.6434L24.7135 12.9284C25.0278 12.6248 25.4488 12.4568 25.8858 12.4606C26.3228 12.4644 26.7408 12.6397 27.0499 12.9487C27.3589 13.2577 27.5342 13.6757 27.538 14.1127C27.5418 14.5497 27.3738 14.9707 27.0702 15.285L22.3568 20L27.0702 24.7134C27.2249 24.8681 27.3477 25.0518 27.4314 25.254C27.5151 25.4562 27.5582 25.6729 27.5582 25.8917C27.5582 26.1105 27.5151 26.3272 27.4314 26.5294C27.3477 26.7316 27.2249 26.9153 27.0702 27.07C26.9154 27.2248 26.7317 27.3475 26.5295 27.4313C26.3274 27.515 26.1107 27.5581 25.8918 27.5581C25.673 27.5581 25.4563 27.515 25.2541 27.4313C25.0519 27.3475 24.8682 27.2248 24.7135 27.07L20.0002 22.3567L15.2852 27.07C15.1304 27.2248 14.9467 27.3475 14.7445 27.4313C14.5424 27.515 14.3257 27.5581 14.1068 27.5581C13.888 27.5581 13.6713 27.515 13.4691 27.4313C13.2669 27.3475 13.0832 27.2248 12.9285 27.07C12.7738 26.9153 12.651 26.7316 12.5673 26.5294C12.4835 26.3272 12.4404 26.1105 12.4404 25.8917C12.4404 25.6729 12.4835 25.4562 12.5673 25.254C12.651 25.0518 12.7738 24.8681 12.9285 24.7134L17.6418 20Z" fill="white"/>
</svg>
