<svg width="25" height="24" viewBox="0 0 25 24" fill="none" xmlns="http://www.w3.org/2000/svg">
<g clip-path="url(#clip0_1433_13932)">
<path fill-rule="evenodd" clip-rule="evenodd" d="M9.54199 14.344C10.3764 14.7421 11.2814 14.971 12.2047 15.0175C13.128 15.064 14.0514 14.9271 14.9216 14.6148C15.7917 14.3024 16.5914 13.8208 17.2744 13.1977C17.9574 12.5746 18.5102 11.8224 18.9008 10.9845C19.2915 10.1466 19.5124 9.23959 19.5506 8.31588C19.5888 7.39216 19.4437 6.47002 19.1236 5.60269C18.8035 4.73537 18.3148 3.94004 17.6856 3.26264C17.0565 2.58524 16.2993 2.03917 15.458 1.65598C13.7783 0.890963 11.8644 0.820292 10.1329 1.45935C8.40138 2.0984 6.99231 3.39546 6.21234 5.06825C5.43237 6.74105 5.34462 8.6542 5.9682 10.3914C6.59178 12.1285 7.87622 13.5491 9.54199 14.344ZM5.12699 14.347C5.28299 14.011 5.74099 13.955 5.99699 14.223C6.83636 15.1021 7.84559 15.8016 8.96344 16.279C10.0813 16.7563 11.2845 17.0016 12.5 17C13.7153 17.0015 14.9183 16.7561 16.036 16.2788C17.1537 15.8014 18.1627 15.102 19.002 14.223C19.259 13.955 19.716 14.011 19.873 14.347L22.14 19.208C22.1985 19.3339 22.2218 19.4734 22.2074 19.6115C22.193 19.7497 22.1413 19.8813 22.058 19.9924C21.9747 20.1036 21.8628 20.19 21.7343 20.2426C21.6057 20.2952 21.4653 20.3119 21.328 20.291L17.994 19.781L16.241 22.663C16.1688 22.7817 16.0657 22.8786 15.9428 22.9434C15.8198 23.0082 15.6816 23.0384 15.5428 23.0308C15.4041 23.0232 15.27 22.9781 15.1548 22.9003C15.0397 22.8225 14.9478 22.7149 14.889 22.589L12.5 17.464L10.11 22.59C10.0511 22.7156 9.95922 22.823 9.84417 22.9006C9.72912 22.9783 9.59519 23.0233 9.45661 23.0308C9.31803 23.0384 9.17998 23.0083 9.05715 22.9437C8.93431 22.8791 8.83127 22.7825 8.75899 22.664L7.00599 19.783L3.67099 20.293C3.53354 20.3141 3.39293 20.2975 3.2642 20.2449C3.13547 20.1923 3.02346 20.1057 2.94015 19.9944C2.85684 19.883 2.80538 19.7511 2.79126 19.6128C2.77714 19.4744 2.80089 19.3349 2.85999 19.209L5.12699 14.347Z" fill="#FEC14E"/>
</g>
<defs>
<clipPath id="clip0_1433_13932">
<rect width="24" height="24" fill="white" transform="translate(0.5)"/>
</clipPath>
</defs>
</svg>
