<svg width="40" height="40" viewBox="0 0 40 40" fill="none" xmlns="http://www.w3.org/2000/svg">
<path d="M12.5 4.16667C12.5 3.24619 11.7538 2.5 10.8333 2.5C9.91282 2.5 9.16663 3.24619 9.16663 4.16667V5.83333C9.16663 6.75381 9.91282 7.5 10.8333 7.5C11.7538 7.5 12.5 6.75381 12.5 5.83333V4.16667Z" fill="#FEC14E"/>
<path d="M30.8333 4.16667C30.8333 3.24619 30.0871 2.5 29.1667 2.5C28.2462 2.5 27.5 3.24619 27.5 4.16667V5.83333C27.5 6.75381 28.2462 7.5 29.1667 7.5C30.0871 7.5 30.8333 6.75381 30.8333 5.83333V4.16667Z" fill="#FEC14E"/>
<path d="M3.33325 15V34.1667C3.33325 35.0507 3.68444 35.8986 4.30956 36.5237C4.93468 37.1488 5.78253 37.5 6.66659 37.5H33.3333C34.2173 37.5 35.0652 37.1488 35.6903 36.5237C36.3154 35.8986 36.6666 35.0507 36.6666 34.1667V15H3.33325ZM13.3333 31.6667C13.3333 32.1087 13.1577 32.5326 12.8451 32.8452C12.5325 33.1577 12.1086 33.3333 11.6666 33.3333H9.99992C9.55789 33.3333 9.13397 33.1577 8.82141 32.8452C8.50885 32.5326 8.33325 32.1087 8.33325 31.6667V30C8.33325 29.558 8.50885 29.134 8.82141 28.8215C9.13397 28.5089 9.55789 28.3333 9.99992 28.3333H11.6666C12.1086 28.3333 12.5325 28.5089 12.8451 28.8215C13.1577 29.134 13.3333 29.558 13.3333 30V31.6667ZM13.3333 22.5C13.3333 22.942 13.1577 23.366 12.8451 23.6785C12.5325 23.9911 12.1086 24.1667 11.6666 24.1667H9.99992C9.55789 24.1667 9.13397 23.9911 8.82141 23.6785C8.50885 23.366 8.33325 22.942 8.33325 22.5V20.8333C8.33325 20.3913 8.50885 19.9674 8.82141 19.6548C9.13397 19.3423 9.55789 19.1667 9.99992 19.1667H11.6666C12.1086 19.1667 12.5325 19.3423 12.8451 19.6548C13.1577 19.9674 13.3333 20.3913 13.3333 20.8333V22.5ZM22.4999 31.6667C22.4999 32.1087 22.3243 32.5326 22.0118 32.8452C21.6992 33.1577 21.2753 33.3333 20.8333 33.3333H19.1666C18.7246 33.3333 18.3006 33.1577 17.9881 32.8452C17.6755 32.5326 17.4999 32.1087 17.4999 31.6667V30C17.4999 29.558 17.6755 29.134 17.9881 28.8215C18.3006 28.5089 18.7246 28.3333 19.1666 28.3333H20.8333C21.2753 28.3333 21.6992 28.5089 22.0118 28.8215C22.3243 29.134 22.4999 29.558 22.4999 30V31.6667ZM22.4999 22.5C22.4999 22.942 22.3243 23.366 22.0118 23.6785C21.6992 23.9911 21.2753 24.1667 20.8333 24.1667H19.1666C18.7246 24.1667 18.3006 23.9911 17.9881 23.6785C17.6755 23.366 17.4999 22.942 17.4999 22.5V20.8333C17.4999 20.3913 17.6755 19.9674 17.9881 19.6548C18.3006 19.3423 18.7246 19.1667 19.1666 19.1667H20.8333C21.2753 19.1667 21.6992 19.3423 22.0118 19.6548C22.3243 19.9674 22.4999 20.3913 22.4999 20.8333V22.5ZM31.6666 31.6667C31.6666 32.1087 31.491 32.5326 31.1784 32.8452C30.8659 33.1577 30.4419 33.3333 29.9999 33.3333H28.3333C27.8912 33.3333 27.4673 33.1577 27.1547 32.8452C26.8422 32.5326 26.6666 32.1087 26.6666 31.6667V30C26.6666 29.558 26.8422 29.134 27.1547 28.8215C27.4673 28.5089 27.8912 28.3333 28.3333 28.3333H29.9999C30.4419 28.3333 30.8659 28.5089 31.1784 28.8215C31.491 29.134 31.6666 29.558 31.6666 30V31.6667ZM31.6666 22.5C31.6666 22.942 31.491 23.366 31.1784 23.6785C30.8659 23.9911 30.4419 24.1667 29.9999 24.1667H28.3333C27.8912 24.1667 27.4673 23.9911 27.1547 23.6785C26.8422 23.366 26.6666 22.942 26.6666 22.5V20.8333C26.6666 20.3913 26.8422 19.9674 27.1547 19.6548C27.4673 19.3423 27.8912 19.1667 28.3333 19.1667H29.9999C30.4419 19.1667 30.8659 19.3423 31.1784 19.6548C31.491 19.9674 31.6666 20.3913 31.6666 20.8333V22.5ZM36.6666 13.3333V8.33333C36.6666 7.44928 36.3154 6.60143 35.6903 5.97631C35.0652 5.35119 34.2173 5 33.3333 5H32.4999V5.83333C32.4999 7.67167 31.0049 9.16667 29.1666 9.16667C27.3283 9.16667 25.8333 7.67167 25.8333 5.83333V5H14.1666V5.83333C14.1666 7.67167 12.6716 9.16667 10.8333 9.16667C8.99492 9.16667 7.49992 7.67167 7.49992 5.83333V5H6.66659C5.78253 5 4.93468 5.35119 4.30956 5.97631C3.68444 6.60143 3.33325 7.44928 3.33325 8.33333V13.3333H36.6666Z" fill="#FEC14E"/>
<path d="M13.3333 22.5C13.3333 22.942 13.1577 23.366 12.8451 23.6785C12.5325 23.9911 12.1086 24.1667 11.6666 24.1667H9.99992C9.55789 24.1667 9.13397 23.9911 8.82141 23.6785C8.50885 23.366 8.33325 22.942 8.33325 22.5V20.8333C8.33325 20.3913 8.50885 19.9674 8.82141 19.6548C9.13397 19.3423 9.55789 19.1667 9.99992 19.1667H11.6666C12.1086 19.1667 12.5325 19.3423 12.8451 19.6548C13.1577 19.9674 13.3333 20.3913 13.3333 20.8333V22.5Z" fill="#1B354D"/>
<path d="M22.4999 22.5C22.4999 22.942 22.3243 23.366 22.0118 23.6785C21.6992 23.9911 21.2753 24.1667 20.8333 24.1667H19.1666C18.7246 24.1667 18.3006 23.9911 17.9881 23.6785C17.6755 23.366 17.4999 22.942 17.4999 22.5V20.8333C17.4999 20.3913 17.6755 19.9674 17.9881 19.6548C18.3006 19.3423 18.7246 19.1667 19.1666 19.1667H20.8333C21.2753 19.1667 21.6992 19.3423 22.0118 19.6548C22.3243 19.9674 22.4999 20.3913 22.4999 20.8333V22.5Z" fill="#1B354D"/>
<path d="M31.6666 22.5C31.6666 22.942 31.491 23.366 31.1784 23.6785C30.8659 23.9911 30.4419 24.1667 29.9999 24.1667H28.3333C27.8912 24.1667 27.4673 23.9911 27.1547 23.6785C26.8422 23.366 26.6666 22.942 26.6666 22.5V20.8333C26.6666 20.3913 26.8422 19.9674 27.1547 19.6548C27.4673 19.3423 27.8912 19.1667 28.3333 19.1667H29.9999C30.4419 19.1667 30.8659 19.3423 31.1784 19.6548C31.491 19.9674 31.6666 20.3913 31.6666 20.8333V22.5Z" fill="#1B354D"/>
<path d="M13.3333 31.6667C13.3333 32.1087 13.1577 32.5326 12.8451 32.8452C12.5325 33.1577 12.1086 33.3333 11.6666 33.3333H9.99992C9.55789 33.3333 9.13397 33.1577 8.82141 32.8452C8.50885 32.5326 8.33325 32.1087 8.33325 31.6667V30C8.33325 29.558 8.50885 29.134 8.82141 28.8215C9.13397 28.5089 9.55789 28.3333 9.99992 28.3333H11.6666C12.1086 28.3333 12.5325 28.5089 12.8451 28.8215C13.1577 29.134 13.3333 29.558 13.3333 30V31.6667Z" fill="#1B354D"/>
<path d="M22.4999 31.6667C22.4999 32.1087 22.3243 32.5326 22.0118 32.8452C21.6992 33.1577 21.2753 33.3333 20.8333 33.3333H19.1666C18.7246 33.3333 18.3006 33.1577 17.9881 32.8452C17.6755 32.5326 17.4999 32.1087 17.4999 31.6667V30C17.4999 29.558 17.6755 29.134 17.9881 28.8215C18.3006 28.5089 18.7246 28.3333 19.1666 28.3333H20.8333C21.2753 28.3333 21.6992 28.5089 22.0118 28.8215C22.3243 29.134 22.4999 29.558 22.4999 30V31.6667Z" fill="#1B354D"/>
<path d="M31.6666 31.6667C31.6666 32.1087 31.491 32.5326 31.1784 32.8452C30.8659 33.1577 30.4419 33.3333 29.9999 33.3333H28.3333C27.8912 33.3333 27.4673 33.1577 27.1547 32.8452C26.8422 32.5326 26.6666 32.1087 26.6666 31.6667V30C26.6666 29.558 26.8422 29.134 27.1547 28.8215C27.4673 28.5089 27.8912 28.3333 28.3333 28.3333H29.9999C30.4419 28.3333 30.8659 28.5089 31.1784 28.8215C31.491 29.134 31.6666 29.558 31.6666 30V31.6667Z" fill="#1B354D"/>
</svg>
