<svg width="32" height="32" viewBox="0 0 32 32" fill="none" xmlns="http://www.w3.org/2000/svg">
<g clip-path="url(#clip0_501_4922)">
<path d="M18.3865 16.0005L29.0061 5.38203C29.6653 4.72282 29.6653 3.65405 29.0061 2.99489C28.3469 2.33569 27.2781 2.33569 26.6189 2.99489L16.0004 13.6144L5.38203 2.99489C4.72282 2.33569 3.65404 2.33569 2.99489 2.99489C2.33574 3.6541 2.33569 4.72287 2.99489 5.38203L13.6144 16.0005L2.99489 26.6189C2.33569 27.2781 2.33569 28.3469 2.99489 29.0061C3.6541 29.6652 4.72287 29.6653 5.38203 29.0061L16.0004 18.3865L26.6189 29.0061C27.2781 29.6653 28.3469 29.6653 29.006 29.0061C29.6652 28.3469 29.6652 27.2781 29.006 26.6189L18.3865 16.0005Z" fill="#13283A"/>
</g>
<defs>
<clipPath id="clip0_501_4922">
<rect width="27" height="27" fill="white" transform="translate(2.5 2.5)"/>
</clipPath>
</defs>
</svg>
