<svg width="36" height="36" viewBox="0 0 36 36" fill="none" xmlns="http://www.w3.org/2000/svg">
<path d="M18 3C9.70951 3 3 9.70875 3 18C3 26.2904 9.70875 33 18 33C26.2905 33 33 26.2913 33 18C33 9.70963 26.2913 3 18 3Z" fill="#FEC14E"/>
<path d="M19.5404 23.9544C19.5404 24.4283 18.8493 24.9021 18.0003 24.9021C17.1118 24.9021 16.48 24.4283 16.48 23.9544V16.4317C16.48 15.8788 17.1118 15.5036 18.0003 15.5036C18.8493 15.5036 19.5404 15.8788 19.5404 16.4317V23.9544ZM18.0004 13.6873C17.0921 13.6873 16.3813 13.016 16.3813 12.2656C16.3813 11.5153 17.0921 10.8637 18.0004 10.8637C18.8889 10.8637 19.5997 11.5153 19.5997 12.2656C19.5997 13.016 18.8888 13.6873 18.0004 13.6873Z" fill="#1B354D"/>
<path d="M18 1.5C8.88113 1.5 1.5 8.88027 1.5 18C1.5 27.1187 8.88027 34.5 18 34.5C27.1189 34.5 34.5 27.1197 34.5 18C34.5 8.88126 27.1197 1.5 18 1.5Z" stroke="#1B354D" stroke-width="3"/>
</svg>
