<svg width="30" height="30" viewBox="0 0 30 30" fill="none" xmlns="http://www.w3.org/2000/svg">
<path fill-rule="evenodd" clip-rule="evenodd" d="M8.75 3.75C8.75 3.08696 9.01339 2.45107 9.48223 1.98223C9.95107 1.51339 10.587 1.25 11.25 1.25H26.25C26.913 1.25 27.5489 1.51339 28.0178 1.98223C28.4866 2.45107 28.75 3.08696 28.75 3.75V18.75C28.75 19.413 28.4866 20.0489 28.0178 20.5178C27.5489 20.9866 26.913 21.25 26.25 21.25H25C24.6685 21.25 24.3505 21.1183 24.1161 20.8839C23.8817 20.6495 23.75 20.3315 23.75 20V10.625C23.75 9.46468 23.2891 8.35188 22.4686 7.53141C21.6481 6.71094 20.5353 6.25 19.375 6.25H10C9.66848 6.25 9.35054 6.1183 9.11612 5.88388C8.8817 5.64946 8.75 5.33152 8.75 5V3.75ZM1.25 11.25C1.25 10.587 1.51339 9.95107 1.98223 9.48223C2.45107 9.01339 3.08696 8.75 3.75 8.75H18.75C19.413 8.75 20.0489 9.01339 20.5178 9.48223C20.9866 9.95107 21.25 10.587 21.25 11.25V26.25C21.25 26.913 20.9866 27.5489 20.5178 28.0178C20.0489 28.4866 19.413 28.75 18.75 28.75H3.75C3.08696 28.75 2.45107 28.4866 1.98223 28.0178C1.51339 27.5489 1.25 26.913 1.25 26.25V11.25Z" fill="#1B354D"/>
</svg>
