<svg width="40" height="40" viewBox="0 0 40 40" fill="none" xmlns="http://www.w3.org/2000/svg">
<path d="M26.3987 28.033L28.2279 25.0648L31.5288 23.9391L31.8945 20.4721L34.378 18.0272L33.1972 14.7455L34.378 11.4637L31.8946 9.01875L31.5289 5.55188L28.2279 4.42609L26.3988 1.45789L22.939 1.87562L20 0L17.0611 1.87578L13.6014 1.45805L11.7722 4.42617L8.47129 5.55195L8.10559 9.01883L5.62207 11.4637L6.80285 14.7455L5.62207 18.0273L8.10551 20.4722L8.47121 23.9391L11.7721 25.0649L13.6013 28.033L17.0611 27.6154L20 29.4911L22.939 27.6154L26.3987 28.033ZM9.8884 14.7455C9.8884 9.17 14.4245 4.63391 20 4.63391C25.5756 4.63391 30.1117 9.17 30.1117 14.7455C30.1117 20.3211 25.5756 24.8572 20 24.8572C14.4245 24.8572 9.8884 20.3211 9.8884 14.7455Z" fill="#FEC14E"/>
<path d="M20.0001 6.97914C15.7177 6.97914 12.2337 10.4631 12.2337 14.7455C12.2337 19.028 15.7177 22.512 20.0001 22.512C24.2825 22.512 27.7665 19.028 27.7665 14.7455C27.7665 10.4631 24.2825 6.97914 20.0001 6.97914ZM16.5079 30.0444L12.3922 30.5413L10.2178 27.0126L9.47855 26.7605L6.29004 36.7266L12.0303 36.4109L16.5213 40L19.1641 31.7397L16.5079 30.0444ZM29.7825 27.0127L27.6079 30.5413L23.4924 30.0444L20.8361 31.7397L23.4789 40L27.97 36.4109L33.7102 36.7266L30.5217 26.7605L29.7825 27.0127Z" fill="#FEC14E"/>
</svg>
