<svg width="80" height="81" viewBox="0 0 80 81" fill="none" xmlns="http://www.w3.org/2000/svg">
<path d="M60.0537 31.8865V22.3285C60.0537 11.1375 51.0673 2.02502 40.0001 2.02502C28.9473 2.02502 19.9473 11.1375 19.9473 22.3293V31.8873C15.3201 32.2785 11.6801 36.2329 11.6801 41.0119V52.407C11.6801 67.0543 23.4401 78.975 37.9065 78.975H42.0937C56.5601 78.975 68.3201 67.0543 68.3201 52.407V41.0128C68.3201 36.2338 64.6809 32.2785 60.0537 31.8865ZM28.6273 22.3285C29.2505 7.07051 50.7505 7.07456 51.3737 22.3285V31.8468H28.6273V22.3285ZM36.8273 56.4708C32.1473 53.3798 34.4305 45.8233 40.0009 45.8736C45.5705 45.8258 47.8568 53.3758 43.1737 56.4708C42.8137 56.7138 42.5873 57.1463 42.5873 57.5918V62.3303C42.5009 65.7793 37.5041 65.7866 37.4137 62.3303V57.591C37.4137 57.1455 37.1873 56.7138 36.8273 56.4708Z" fill="currentColor"/>
</svg>
