<svg width="40" height="41" viewBox="0 0 40 41" fill="none" xmlns="http://www.w3.org/2000/svg">
<path fill-rule="evenodd" clip-rule="evenodd" d="M34.1317 13.13L25.155 5.70834C23.7104 4.49704 21.8853 3.83316 20 3.83316C18.1147 3.83316 16.2897 4.49704 14.845 5.70834L5.86834 13.13C4.25168 14.4683 3.33334 16.495 3.33334 18.61V30.185C3.33334 33.9433 6.22334 37.1667 10 37.1667H13.3333C14.2174 37.1667 15.0652 36.8155 15.6904 36.1904C16.3155 35.5652 16.6667 34.7174 16.6667 33.8333V28.4133C16.6667 26.3 18.2533 24.7633 20 24.7633C21.7467 24.7633 23.3333 26.3 23.3333 28.4133V33.8333C23.3333 34.7174 23.6845 35.5652 24.3097 36.1904C24.9348 36.8155 25.7826 37.1667 26.6667 37.1667H30C33.7767 37.1667 36.6667 33.9433 36.6667 30.1833V18.61C36.6667 16.495 35.75 14.4683 34.1317 13.13Z" fill="currentColor"/>
</svg>
