<svg width="36" height="37" viewBox="0 0 36 37" fill="none" xmlns="http://www.w3.org/2000/svg">
<path d="M6 16C8.48528 16 10.5 13.9853 10.5 11.5C10.5 9.01472 8.48528 7 6 7C3.51472 7 1.5 9.01472 1.5 11.5C1.5 13.9853 3.51472 16 6 16Z" fill="currentColor"/>
<path d="M10.935 19.105C9.42525 20.0471 8.18008 21.3579 7.31673 22.914C6.45338 24.4702 6.00025 26.2204 6 28H3C2.20508 27.9976 1.4434 27.6808 0.881302 27.1187C0.319207 26.5566 0.00237409 25.7949 0 25L0 22C0.00356114 20.8076 0.47881 19.6651 1.32195 18.822C2.1651 17.9788 3.30762 17.5036 4.5 17.5H7.5C8.15485 17.5015 8.8015 17.6459 9.39478 17.9231C9.98807 18.2003 10.5137 18.6036 10.935 19.105Z" fill="currentColor"/>
<path d="M30 16C32.4853 16 34.5 13.9853 34.5 11.5C34.5 9.01472 32.4853 7 30 7C27.5147 7 25.5 9.01472 25.5 11.5C25.5 13.9853 27.5147 16 30 16Z" fill="currentColor"/>
<path d="M36 22V25C35.9976 25.7949 35.6808 26.5566 35.1187 27.1187C34.5566 27.6808 33.7949 27.9976 33 28H30C29.9998 26.2204 29.5466 24.4702 28.6833 22.914C27.8199 21.3579 26.5748 20.0471 25.065 19.105C25.4863 18.6036 26.0119 18.2003 26.6052 17.9231C27.1985 17.6459 27.8451 17.5015 28.5 17.5H31.5C32.6924 17.5036 33.8349 17.9788 34.6781 18.822C35.5212 19.6651 35.9964 20.8076 36 22Z" fill="currentColor"/>
<path d="M18 19C21.3137 19 24 16.3137 24 13C24 9.68629 21.3137 7 18 7C14.6863 7 12 9.68629 12 13C12 16.3137 14.6863 19 18 19Z" fill="currentColor"/>
<path d="M27 28V29.5C26.9964 30.6924 26.5212 31.8349 25.678 32.678C24.8349 33.5212 23.6924 33.9964 22.5 34H13.5C12.3076 33.9964 11.1651 33.5212 10.322 32.678C9.47881 31.8349 9.00356 30.6924 9 29.5V28C9 26.0109 9.79018 24.1032 11.1967 22.6967C12.6032 21.2902 14.5109 20.5 16.5 20.5H19.5C21.4891 20.5 23.3968 21.2902 24.8033 22.6967C26.2098 24.1032 27 26.0109 27 28Z" fill="currentColor"/>
</svg>
