<svg width="36" height="37" viewBox="0 0 36 37" fill="none" xmlns="http://www.w3.org/2000/svg">
<path d="M10.875 21.074H6C4.5525 21.074 3.375 22.2515 3.375 23.699V31.949C3.375 33.3965 4.5525 34.574 6 34.574H10.875V21.074ZM20.25 17.324H15.75C14.3025 17.324 13.125 18.5015 13.125 19.949V34.574H22.875V19.949C22.875 18.5015 21.6975 17.324 20.25 17.324ZM30 24.824H25.125V34.574H30C31.4475 34.574 32.625 33.3965 32.625 31.949V27.449C32.625 26.0015 31.4475 24.824 30 24.824ZM24.501 7.046C24.4362 6.84638 24.3168 6.66884 24.1565 6.53341C23.9961 6.39798 23.8012 6.31004 23.5935 6.2795L20.4255 5.8205L19.0095 2.951C18.6315 2.183 17.37 2.183 16.992 2.951L15.576 5.8205L12.408 6.2795C12.2004 6.31021 12.0056 6.39828 11.8454 6.53379C11.6852 6.66929 11.566 6.84685 11.5013 7.04644C11.4366 7.24604 11.4289 7.45974 11.4791 7.66346C11.5293 7.86719 11.6354 8.05284 11.7855 8.1995L14.0775 10.433L13.536 13.586C13.5004 13.7929 13.5235 14.0056 13.6025 14.2001C13.6815 14.3946 13.8134 14.5631 13.9832 14.6865C14.153 14.81 14.3539 14.8835 14.5633 14.8987C14.7727 14.9138 14.9822 14.8701 15.168 14.7725L18.0015 13.283L20.8335 14.7725C21.0191 14.8711 21.2287 14.9154 21.4383 14.9003C21.6479 14.8852 21.849 14.8112 22.0185 14.687C22.1883 14.5635 22.3202 14.3949 22.3992 14.2003C22.4782 14.0058 22.5012 13.793 22.4655 13.586L21.924 10.433L24.216 8.1995C24.3664 8.05299 24.4728 7.8673 24.5232 7.66344C24.5736 7.45959 24.5659 7.24571 24.501 7.046Z" fill="currentColor"/>
</svg>
